# xmcd
#
# Track frame offsets:
#	150
#	18003
#	30401
#	45977
#	57839
#	70436
#	87136
#	102022
#	120919
#	138811
#	150145
#	168832
#	182479
#	197407
#
# Disc length: 2830 seconds
#
# Revision: 1
# Processed by: cddbd v1.5.2PL0 Copyright (c) Steve Scherf et al.
# Submitted via: audiograbber 1.83.01
#
DISCID=900b0c0e
DTITLE=Blue Highways - Blue Highways 001
DYEAR=2007
DGENRE=Country
TTITLE0=Blue Highways  - Michael Johnathon
TTITLE1=Perfection  - Peter Rowan and Tony Price
TTITLE2=Sourwood Mountain - Carlolina Chocolate Drops
TTITLE3=When I´m 64  - The Del Mccoury Band
TTITLE4=My Mothers Bible  - Ronnie Reno and The Reno Tradition
TTITLE5=The Last Goodbye  - Uncle Earl
TTITLE6=Try Me One More Time - David Bromberg
TTITLE7=All For Good - Adrienne Young
TTITLE8=Long And Lonesome Ride To Dalhart  - Michael Martin Murphey
TTITLE9=No Tears In Heaven  - Goodwill Trio
TTITLE10=What Would Jesus Do  - Chris Thomas King
TTITLE11=Isommiac Blues For Matthew  - Cadillac Sky
TTITLE12=Wandrin  - Roger Mcguinn
TTITLE13=Crazy By Myself  - Pam Tillis
EXTD=
EXTT0=
EXTT1=
EXTT2=
EXTT3=
EXTT4=
EXTT5=
EXTT6=
EXTT7=
EXTT8=
EXTT9=
EXTT10=
EXTT11=
EXTT12=
EXTT13=
PLAYORDER=
